<svg width="52" height="52" viewBox="0 0 52 52" fill="none" xmlns="http://www.w3.org/2000/svg">
<path d="M34.6667 15.1667C34.6667 13.97 35.6367 13 36.8333 13C38.0299 13 39 13.97 39 15.1667C39 16.3633 38.0299 17.3333 36.8333 17.3333C35.6367 17.3333 34.6667 16.3633 34.6667 15.1667Z" fill="black"/>
<path fill-rule="evenodd" clip-rule="evenodd" d="M26 15.7083C20.3161 15.7083 15.7083 20.3161 15.7083 26C15.7083 31.6839 20.3161 36.2917 26 36.2917C31.6839 36.2917 36.2917 31.6839 36.2917 26C36.2917 20.3161 31.6839 15.7083 26 15.7083ZM18.9583 26C18.9583 22.111 22.111 18.9583 26 18.9583C29.889 18.9583 33.0417 22.111 33.0417 26C33.0417 29.889 29.889 33.0417 26 33.0417C22.111 33.0417 18.9583 29.889 18.9583 26Z" fill="black"/>
<path fill-rule="evenodd" clip-rule="evenodd" d="M37.3929 6.1382C29.882 5.29874 22.1181 5.29874 14.6072 6.1382C10.2477 6.62543 6.72832 10.0596 6.21579 14.4418C5.31762 22.1211 5.31762 29.8789 6.21579 37.5582C6.72832 41.9404 10.2477 45.3746 14.6072 45.8618C22.1181 46.7012 29.882 46.7012 37.3929 45.8618C41.7523 45.3746 45.2717 41.9404 45.7843 37.5582C46.6824 29.8789 46.6824 22.1211 45.7843 14.4418C45.2717 10.0596 41.7523 6.62543 37.3929 6.1382ZM14.9682 9.36809C22.2392 8.55545 29.7609 8.55545 37.0319 9.36809C39.9138 9.69018 42.2224 11.9643 42.5563 14.8193C43.4251 22.2478 43.4251 29.7522 42.5563 37.1807C42.2224 40.0356 39.9138 42.3098 37.0319 42.6319C29.7609 43.4445 22.2392 43.4445 14.9682 42.6319C12.0863 42.3098 9.7777 40.0356 9.44378 37.1807C8.57496 29.7522 8.57496 22.2478 9.44378 14.8193C9.7777 11.9643 12.0863 9.69018 14.9682 9.36809Z" fill="black"/>
</svg>
