<svg width="115" height="56" viewBox="0 0 115 56" fill="none" xmlns="http://www.w3.org/2000/svg">
<path d="M0 36V0.599998H1.8V36H0ZM7.2 36V0.599998H10.8V36H7.2ZM12.6 36V0.599998H18V36H12.6ZM5.82 41.22H7.62V41.4C7.54 41.48 7.48 41.58 7.44 41.7C7.44 41.78 7.44 41.96 7.44 42.24V53.82H14.1V55.14H5.82V41.22ZM19.8047 36V0.599998H21.6047V36H19.8047ZM27.0047 36V0.599998H30.6047V36H27.0047ZM32.4047 36V0.599998H34.2047V36H32.4047ZM25.4447 41.22H33.9647V42.6H26.8847V47.16H32.7647V48.6H26.8847V53.76H33.9047V55.14H25.4447V41.22ZM39.6094 36V0.599998H45.0094V36H39.6094ZM46.8094 36V0.599998H48.6094V36H46.8094ZM50.4094 36V0.599998H54.0094V36H50.4094ZM44.4694 41.22H46.0894L49.6894 51.9L53.0494 41.22H54.6094L49.9294 55.2H49.2094L44.4694 41.22ZM59.4141 36V0.599998H63.0141V36H59.4141ZM64.8141 36V0.599998H70.2141V36H64.8141ZM72.0141 36V0.599998H73.8141V36H72.0141ZM69.2541 55.38C67.4541 55.38 65.9941 54.78 64.8741 53.58L65.7141 52.2L65.7741 52.02L65.9541 52.08C65.9541 52.12 65.9741 52.2 66.0141 52.32C66.0141 52.4 66.0541 52.5 66.1341 52.62C66.1741 52.7 66.2541 52.78 66.3741 52.86C67.2141 53.58 68.2541 53.94 69.4941 53.94C70.2941 53.94 70.9741 53.72 71.5341 53.28C72.0941 52.8 72.3741 52.24 72.3741 51.6C72.3741 51.16 72.2741 50.78 72.0741 50.46C71.9141 50.18 71.6141 49.9 71.1741 49.62C70.7341 49.34 70.0541 49 69.1341 48.6C67.7741 48.08 66.7941 47.48 66.1941 46.8C65.6341 46.12 65.3541 45.36 65.3541 44.52C65.3541 43.48 65.7341 42.64 66.4941 42C67.2541 41.36 68.2741 41.04 69.5541 41.04C70.3141 41.04 71.0341 41.2 71.7141 41.52C72.3541 41.84 72.9341 42.26 73.4541 42.78L72.4341 44.16L72.3141 44.04C72.3141 44 72.2941 43.94 72.2541 43.86C72.2541 43.74 72.2141 43.64 72.1341 43.56C72.0941 43.44 72.0141 43.34 71.8941 43.26C71.5741 42.94 71.1941 42.7 70.7541 42.54C70.3541 42.42 69.8741 42.36 69.3141 42.36C68.5941 42.36 68.0341 42.56 67.6341 42.96C67.1941 43.36 66.9741 43.84 66.9741 44.4C66.9741 44.84 67.0541 45.22 67.2141 45.54C67.4141 45.86 67.7541 46.16 68.2341 46.44C68.7141 46.76 69.4341 47.1 70.3941 47.46C71.7141 48.02 72.6341 48.58 73.1541 49.14C73.6341 49.74 73.8741 50.48 73.8741 51.36C73.8741 52.04 73.7141 52.68 73.3941 53.28C73.0341 53.88 72.5141 54.38 71.8341 54.78C71.1141 55.18 70.2541 55.38 69.2541 55.38ZM79.2188 36V0.599998H82.8188V36H79.2188ZM88.2188 36V0.599998H90.0188V36H88.2188ZM91.8188 36V0.599998H93.6188V36H91.8188ZM84.6788 41.22H86.4788V41.4C86.3988 41.48 86.3388 41.58 86.2988 41.7C86.2988 41.78 86.2988 41.96 86.2988 42.24V47.16H91.6988V41.22H93.5588V41.4C93.4788 41.48 93.4188 41.58 93.3788 41.7C93.3788 41.78 93.3788 41.96 93.3788 42.24V55.14H91.6988V48.54H86.2988V55.14H84.6788V41.22ZM99.0234 36V0.599998H100.823V36H99.0234ZM102.623 36V0.599998H104.423V36H102.623ZM109.823 36V0.599998H113.423V36H109.823ZM111.143 51.06H106.643L105.263 55.14H103.703L108.803 40.98H108.983L114.143 55.14H112.523L111.143 51.06ZM110.723 49.86L108.923 44.58L107.063 49.86H110.723Z" fill="white"/>
</svg>
