<svg width="32" height="32" viewBox="0 0 32 32" fill="none" xmlns="http://www.w3.org/2000/svg">
<path d="M6.66692 13.1474C9.22212 18.7125 13.7688 23.1372 19.4215 25.5359L20.3276 25.9396C22.4007 26.8633 24.8377 26.1615 26.1022 24.2769L27.2863 22.5119C27.6713 21.9381 27.5541 21.1652 27.0162 20.7313L23.0005 17.4916C22.4106 17.0158 21.5433 17.1266 21.092 17.7355L19.8497 19.4118C16.662 17.8394 14.0739 15.2513 12.5015 12.0636L14.1778 10.8213C14.7867 10.37 14.8975 9.50268 14.4217 8.91284L11.1818 4.89691C10.748 4.3592 9.97536 4.24191 9.40154 4.62667L7.62442 5.81827C5.72796 7.08988 5.03012 9.54701 5.97509 11.6256L6.66588 13.1451L6.66692 13.1474Z" fill="black"/>
</svg>
