<svg width="32" height="32" viewBox="0 0 45 39" fill="none" xmlns="http://www.w3.org/2000/svg">
<path fill-rule="evenodd" clip-rule="evenodd" d="M9.53978 23.3758C9.63463 23.4078 9.73036 23.4304 9.82599 23.4444C9.93028 23.6894 10.065 24.0065 10.2222 24.3773C10.6059 25.2821 11.1229 26.5059 11.6565 27.7826C12.7446 30.3863 13.8423 33.0702 14.0847 33.8384C14.3848 34.7881 14.7021 35.4338 15.0484 35.8746C15.2274 36.1025 15.4345 36.3016 15.6769 36.4523C15.7988 36.5281 15.9277 36.5904 16.0622 36.6367C16.0681 36.6388 16.074 36.6408 16.08 36.6427C16.7733 36.9045 17.4055 36.7954 17.8013 36.6621C18.013 36.5908 18.1844 36.5046 18.3058 36.4348C18.3677 36.3993 18.42 36.366 18.4618 36.338L18.4716 36.3313L24.5951 32.5126L31.6682 37.9354C31.7726 38.0154 31.8864 38.0825 32.007 38.1351C32.8567 38.5059 33.6796 38.6353 34.4536 38.5295C35.2263 38.424 35.8399 38.0993 36.2965 37.734C36.7438 37.3761 37.047 36.9754 37.2358 36.6776C37.3322 36.5255 37.4046 36.391 37.4556 36.288C37.4813 36.2363 37.5019 36.1917 37.5178 36.1558L37.5383 36.1086L37.546 36.09L37.5492 36.0821L37.5507 36.0785L37.552 36.0751C37.5892 35.9822 37.6177 35.886 37.6372 35.7878L44.0943 3.2326C44.115 3.12848 44.1254 3.02259 44.1254 2.91645C44.1254 1.96309 43.7662 1.05655 42.9215 0.506447C42.1996 0.036286 41.3954 0.0160483 40.8872 0.0546259C40.3389 0.0962399 39.8325 0.231586 39.4927 0.339738C39.3159 0.396022 39.1677 0.450327 39.0608 0.491756C39.007 0.512578 38.963 0.530442 38.9302 0.544066L38.9056 0.554438L2.6925 14.7603L2.68781 14.762C2.66473 14.7704 2.63511 14.7814 2.5999 14.7951C2.52977 14.8224 2.43582 14.8609 2.32607 14.9106C2.11204 15.0076 1.81178 15.1592 1.50367 15.3702C1.01143 15.7073 -0.120636 16.6306 0.0699891 18.1544C0.222065 19.37 1.05489 20.1166 1.5623 20.4757C1.84092 20.6728 2.10561 20.8138 2.29838 20.9056C2.38781 20.9481 2.57348 21.0236 2.65404 21.0563L2.67437 21.0645L9.53978 23.3758ZM40.1729 3.54704L40.1679 3.54923C40.1498 3.55707 40.1317 3.56458 40.1133 3.57176L3.85633 17.7949C3.83739 17.8023 3.81832 17.8094 3.79912 17.8161L3.77894 17.8237C3.75575 17.8328 3.7167 17.8486 3.66768 17.8708C3.63989 17.8834 3.61089 17.8972 3.58131 17.9119C3.62194 17.9348 3.66083 17.9547 3.69538 17.9711C3.72855 17.9869 3.75385 17.9977 3.7677 18.0034L10.5767 20.2957C10.7014 20.3377 10.8175 20.3933 10.9242 20.4603L33.4072 7.29887L33.4282 7.28642C33.4446 7.27675 33.4661 7.26431 33.4919 7.24974C33.5431 7.22081 33.6134 7.1823 33.697 7.13974C33.853 7.06032 34.1027 6.94243 34.3839 6.85551C34.5797 6.79499 35.1571 6.6245 35.7813 6.82471C36.1666 6.94828 36.5655 7.21393 36.8249 7.66396C36.9538 7.88754 37.0224 8.11213 37.0557 8.31772C37.144 8.6416 37.1301 8.96141 37.0609 9.23752C36.9119 9.83229 36.4941 10.2962 36.1138 10.6511C35.7881 10.9553 31.5731 15.0196 27.4149 19.0318C25.3413 21.0326 23.2888 23.0137 21.7548 24.4945L20.7471 25.4673L33.4697 35.2212C33.7614 35.3257 33.9339 35.3203 34.0138 35.3094C34.1088 35.2964 34.1866 35.2598 34.2661 35.1962C34.355 35.1251 34.4328 35.0291 34.4909 34.9375L34.4933 34.9337L40.756 3.35887C40.663 3.38121 40.5691 3.40781 40.4785 3.43664C40.3759 3.4693 40.2913 3.5004 40.2352 3.52214C40.2074 3.5329 40.1874 3.54106 40.1766 3.54557L40.1729 3.54704ZM21.8401 30.4005L19.3019 28.4545L18.6869 32.3669L21.8401 30.4005ZM16.9734 24.593L19.4976 22.1563C21.0317 20.6753 23.0844 18.694 25.1582 16.693L27.2653 14.6602L13.1386 22.9299L13.2144 23.1086C13.5994 24.0167 14.1187 25.2459 14.6551 26.5294C15.0562 27.4891 15.4756 28.4996 15.8577 29.4352L16.4709 25.5343C16.5301 25.1582 16.7138 24.8326 16.9734 24.593Z" fill="white"/>
</svg>
