<svg width="52" height="52" viewBox="0 0 52 52" fill="none" xmlns="http://www.w3.org/2000/svg">
<path fill-rule="evenodd" clip-rule="evenodd" d="M50.7107 36.5408C49.5323 34.1672 47.9795 31.999 46.1121 30.1195C45.4766 29.3807 44.7314 28.6516 44.1497 28.0825L44.0685 28.003C43.7685 27.7094 43.5205 27.4656 43.3176 27.2556C45.8711 23.705 48.0566 19.9029 49.8398 15.9082L49.9118 15.747L49.9622 15.5778C50.1965 14.7916 50.4664 13.2964 49.5116 11.9452C48.5247 10.5486 46.9443 10.2968 45.8861 10.2968H41.0174C40.0024 10.2502 38.9974 10.5246 38.1459 11.0825C37.2879 11.6445 36.6315 12.4644 36.2705 13.4227C35.2219 15.9202 33.91 18.2958 32.3586 20.5096V14.8042C32.3586 14.0667 32.2891 12.833 31.4994 11.7917C30.5539 10.5449 29.1865 10.2968 28.2374 10.2968H20.512C19.5167 10.2737 18.5487 10.6296 17.8048 11.294C17.043 11.9743 16.5761 12.9246 16.5032 13.9435L16.4963 14.04V14.1367C16.4963 15.1886 16.9131 15.9645 17.2461 16.4525C17.3952 16.6709 17.5547 16.8698 17.6554 16.9954L17.6786 17.0244C17.7861 17.1584 17.8578 17.2477 17.9297 17.3456C18.119 17.6031 18.3912 18 18.4682 19.0271V22.2185C17.1364 20.0292 15.7314 17.1157 14.6743 14.0041L14.6581 13.9564L14.6401 13.9093C14.3765 13.2189 13.9538 12.2145 13.107 11.4458C12.1179 10.5478 10.9479 10.2968 9.88393 10.2968H4.94406C3.86763 10.2968 2.56996 10.5486 1.60168 11.57C0.649506 12.5744 0.541664 13.778 0.541664 14.4179V14.7064L0.602415 14.9884C1.97068 21.3391 4.78998 27.2863 8.83883 32.3649C10.6745 35.2598 13.1618 37.6862 16.1029 39.4497C19.091 41.2413 22.462 42.2975 25.9382 42.5311L26.0289 42.5372H26.1198C27.6924 42.5372 29.3319 42.4014 30.5647 41.5799C32.2278 40.4716 32.3586 38.7694 32.3586 37.9213V35.4558C32.7853 35.8008 33.3149 36.2652 33.9631 36.8894C34.7468 37.6739 35.3707 38.3534 35.906 38.9467L36.1916 39.2643L36.1933 39.2661C36.6089 39.7289 37.018 40.1845 37.3904 40.5589C37.8587 41.0296 38.4358 41.5482 39.1614 41.9313C39.947 42.3462 40.7717 42.5338 41.6476 42.5338H46.5908C47.6322 42.5338 49.126 42.2875 50.1761 41.0701C51.3206 39.7431 51.2331 38.1169 50.8733 36.9482L50.8086 36.7379L50.7107 36.5408ZM38.3191 36.7697C37.7626 36.1528 37.0915 35.4216 36.2437 34.5737L36.2366 34.5668C33.2984 31.734 31.9255 31.2404 30.9546 31.2404C30.4384 31.2404 29.8671 31.2983 29.4963 31.7602C29.3213 31.9782 29.2294 32.2411 29.1778 32.5152C29.1263 32.7889 29.1086 33.1101 29.1086 33.4761V37.9213C29.1086 38.4734 29.0178 38.7052 28.7624 38.8754C28.4223 39.102 27.6954 39.2857 26.138 39.2872C23.1819 39.0856 20.3156 38.1861 17.7742 36.6624C15.2277 35.1355 13.0803 33.0254 11.5091 30.5061L11.492 30.4787L11.4717 30.4535C7.69897 25.7576 5.07005 20.2491 3.79232 14.3631C3.79924 14.0793 3.86072 13.911 3.96032 13.8059C4.06295 13.6977 4.31163 13.5468 4.94406 13.5468H9.88393C10.4335 13.5468 10.7178 13.6663 10.9225 13.8521C11.1546 14.0628 11.3558 14.4205 11.6003 15.0593C12.8128 18.6255 14.4525 21.9607 16.0052 24.413C16.7812 25.6387 17.545 26.6589 18.2331 27.3799C18.5766 27.7397 18.9135 28.0381 19.235 28.2501C19.5462 28.4553 19.899 28.6171 20.2617 28.6171C20.4532 28.6171 20.6771 28.5974 20.8927 28.502C21.1246 28.3993 21.3046 28.2281 21.4317 27.9988C21.6566 27.5932 21.7182 26.9923 21.7182 26.2052V18.9172L21.7171 18.9001C21.6048 17.127 21.0695 16.1296 20.5482 15.4206C20.434 15.2652 20.3214 15.1248 20.2228 15.002L20.1958 14.9683C20.0875 14.8334 20.0014 14.7243 19.9306 14.6206C19.801 14.4305 19.7507 14.298 19.7466 14.1561C19.7635 13.9875 19.8429 13.8312 19.9696 13.718C20.1011 13.6006 20.2732 13.5395 20.4493 13.5468H28.2374C28.6838 13.5468 28.8342 13.6557 28.9099 13.7555C29.0167 13.8964 29.1086 14.1894 29.1086 14.8042V24.6162C29.1086 25.7817 29.6458 26.5707 30.4261 26.5707C31.3239 26.5707 31.9711 26.0259 33.1029 24.8942L33.1218 24.8753L33.1387 24.8546C35.6754 21.7611 37.7487 18.3148 39.2919 14.6238L39.3017 14.5961C39.4177 14.27 39.6373 13.9907 39.9269 13.801C40.2164 13.6113 40.5601 13.5216 40.9054 13.5455L40.9241 13.5468H45.8861C46.5628 13.5468 46.7854 13.719 46.8574 13.8208C46.934 13.9292 46.9873 14.1614 46.8571 14.6169C45.0781 18.5958 42.878 22.3726 40.2957 25.8838L40.2795 25.9087C40.0287 26.292 39.7537 26.7162 39.7139 27.2034C39.6712 27.7264 39.8975 28.2019 40.2936 28.7116C40.5821 29.1383 41.1773 29.7209 41.7811 30.3119L41.8381 30.3677C42.4712 30.9873 43.157 31.6585 43.7076 32.3084L43.7223 32.3257L43.7383 32.3417C45.3796 33.9788 46.7443 35.8713 47.7794 37.9452C47.9445 38.5099 47.8434 38.7985 47.715 38.9474C47.5647 39.1216 47.2282 39.2838 46.5908 39.2838H41.6476C41.2617 39.2838 40.9636 39.2077 40.679 39.0574C40.3823 38.9008 40.0772 38.6515 39.6946 38.2669C39.3865 37.9572 39.0498 37.5824 38.6391 37.1253C38.5373 37.012 38.4307 36.8934 38.3191 36.7697Z" fill="black"/>
</svg>
