<svg width="32" height="32" viewBox="0 0 52 52" fill="none" xmlns="http://www.w3.org/2000/svg">
<path d="M19.2529 15.5347C19.6493 15.5453 20.0888 15.5667 20.5069 16.4949C20.7842 17.1128 21.2513 18.2503 21.6318 19.1769C21.9279 19.8979 22.1715 20.4913 22.2325 20.6127C22.3718 20.8901 22.4576 21.2101 22.2754 21.5834C22.2539 21.6274 22.2336 21.6695 22.214 21.7101C22.0679 22.0134 21.9639 22.2293 21.7181 22.5115C21.617 22.6275 21.5117 22.7548 21.4068 22.8815C21.2224 23.1044 21.0391 23.3259 20.882 23.4824C20.6034 23.7595 20.3139 24.0585 20.6354 24.6131C20.9571 25.1678 22.0825 26.9921 23.7438 28.4643C25.5298 30.0543 27.0829 30.7244 27.868 31.0632C28.0204 31.1289 28.1439 31.1822 28.2345 31.2273C28.792 31.5046 29.1242 31.462 29.4457 31.0886C29.7674 30.7151 30.839 29.467 31.2143 28.9123C31.5787 28.3577 31.9538 28.443 32.4683 28.635C32.9827 28.8269 35.7265 30.1711 36.2838 30.4484C36.394 30.5033 36.497 30.5527 36.5925 30.5985C36.9803 30.7844 37.2439 30.9108 37.3556 31.0993C37.495 31.3339 37.495 32.4434 37.0341 33.7449C36.5626 35.0464 34.2903 36.2945 33.2613 36.3905C33.1639 36.3997 33.067 36.4114 32.9672 36.4235C32.0243 36.5376 30.8272 36.6824 26.5625 35.0037C21.3075 32.9372 17.8387 27.81 17.1373 26.7734C17.082 26.6916 17.0438 26.6353 17.0234 26.6079L17.0116 26.5921C16.6925 26.1651 14.7404 23.5531 14.7404 20.8582C14.7404 18.2798 16.0106 16.9374 16.5899 16.3251C16.6266 16.2863 16.6606 16.2505 16.6913 16.2174C17.2056 15.6627 17.806 15.5241 18.181 15.5241C18.5563 15.5241 18.9314 15.5241 19.2529 15.5347Z" fill="white"/>
<path fill-rule="evenodd" clip-rule="evenodd" d="M4.73239 46.2181C4.55512 46.8616 5.14118 47.4555 5.78695 47.2868L15.7695 44.6794C18.9206 46.3863 22.4683 47.293 26.0805 47.293H26.0911C37.9774 47.293 47.6667 37.6599 47.6667 25.8186C47.6667 20.0793 45.4264 14.6812 41.3536 10.6273C37.2809 6.5736 31.8681 4.33334 26.0909 4.33334C14.2048 4.33334 4.51557 13.9665 4.51557 25.8079C4.51421 29.575 5.50854 33.2761 7.39871 36.5398L4.73239 46.2181ZM10.532 37.403C10.7634 36.5628 10.6478 35.665 10.2111 34.9109C8.60742 32.142 7.76442 29.0019 7.76557 25.8079C7.76557 15.7768 15.9843 7.58334 26.0909 7.58334C31.0091 7.58334 35.5974 9.48348 39.0609 12.9308C42.5205 16.3743 44.4167 20.9432 44.4167 25.8186C44.4167 35.8495 36.198 44.043 26.0911 44.043H26.0805C23.0113 44.043 19.9954 43.2723 17.3174 41.8217C16.5926 41.4291 15.7457 41.3266 14.9482 41.5349L8.96297 43.0982L10.532 37.403Z" fill="white"/>
</svg>
